<svg width="100" height="100" viewBox="0 0 100 100" fill="none" xmlns="http://www.w3.org/2000/svg">
<rect width="100" height="100" rx="8" fill="#55A654"/>
<path d="M20.0176 55H31.0352V45.9481C31.0352 42.514 32.4016 39.2206 34.8337 36.7924C37.2658 34.3642 40.5645 33 44.0041 33H53.0705V44H46.065C45.0002 44.0021 43.9797 44.4258 43.2275 45.1783C42.4753 45.9307 42.0529 46.9504 42.0529 48.0135V88H31.0352V66H20.0176V88C17.0956 88 14.2932 86.8411 12.227 84.7782C10.1608 82.7153 9.00001 79.9174 9.00001 77V35.5349C8.99795 32.3136 9.63165 29.1236 10.8649 26.147C12.0982 23.1703 13.9068 20.4655 16.1875 18.187C18.4681 15.9086 21.1761 14.1011 24.1567 12.8679C27.1373 11.6347 30.3321 11 33.5585 11H53.0705V22H33.9033C30.2206 22 26.6887 23.4606 24.0846 26.0605C21.4806 28.6604 20.0176 32.1866 20.0176 35.8634V55Z" fill="white"/>
<path d="M80.6075 44H69.5899V53.0519C69.5899 56.4846 68.2246 59.7768 65.7942 62.2048C63.3638 64.6328 60.0671 65.9979 56.6289 66H47.5625V55H54.5602C55.0877 55 55.6101 54.8961 56.0974 54.6943C56.5846 54.4925 57.0273 54.1968 57.3999 53.824C57.7726 53.4512 58.068 53.0087 58.2691 52.5218C58.4703 52.0349 58.5733 51.5132 58.5723 50.9865V11H69.5899V33H80.6075V11C83.5296 11 86.3319 12.1589 88.3981 14.2218C90.4643 16.2847 91.6251 19.0826 91.6251 22V63.4651C91.6272 66.6864 90.9935 69.8764 89.7602 72.8531C88.527 75.8297 86.7183 78.5345 84.4377 80.813C82.157 83.0914 79.449 84.8989 76.4684 86.1321C73.4878 87.3653 70.293 88 67.0667 88H47.5625V77H66.7219C70.4046 77 73.9364 75.5394 76.5405 72.9395C79.1446 70.3396 80.6075 66.8134 80.6075 63.1366V44Z" fill="white"/>
</svg>
