<svg width="50" height="51" viewBox="0 0 50 51" fill="none" xmlns="http://www.w3.org/2000/svg">
<path d="M45.8382 0.607117H3.98593C1.78456 0.607117 0 2.39177 0 4.59325V46.4476C0 48.6491 1.78456 50.4338 3.98593 50.4338H45.8382C48.0395 50.4338 49.8241 48.6491 49.8241 46.4476V4.59325C49.8241 2.39177 48.0395 0.607117 45.8382 0.607117Z" fill="black"/>
<path d="M9.97355 28.0116H15.463V23.5013C15.463 21.7902 16.1438 20.1492 17.3555 18.9393C18.5673 17.7294 20.2109 17.0497 21.9246 17.0497H26.4418V22.5306H22.9514C22.4209 22.5317 21.9124 22.7428 21.5377 23.1177C21.1629 23.4926 20.9524 24.0007 20.9524 24.5304V44.4544H15.463V33.4925H9.97355V44.4544C8.51769 44.4544 7.12142 43.8769 6.09195 42.8489C5.06249 41.8212 4.48413 40.4271 4.48413 38.9734V18.3128C4.48311 16.7077 4.79884 15.1182 5.4133 13.6351C6.02778 12.1519 6.9289 10.8042 8.06523 9.66887C9.20152 8.53362 10.5508 7.633 12.0358 7.01854C13.5209 6.40408 15.1127 6.08783 16.7202 6.08783H26.4418V11.5688H16.892C15.0571 11.5688 13.2974 12.2965 11.9999 13.592C10.7025 14.8874 9.97355 16.6444 9.97355 18.4764V28.0116Z" fill="white"/>
<path d="M40.162 22.5306H34.6726V27.0409C34.6726 28.7513 33.9923 30.3917 32.7814 31.6015C31.5705 32.8113 29.9279 33.4914 28.2149 33.4925H23.6976V28.0116H27.1842C27.447 28.0116 27.7073 27.9598 27.9501 27.8592C28.1928 27.7587 28.4134 27.6114 28.599 27.4256C28.7847 27.2398 28.9319 27.0194 29.0321 26.7768C29.1323 26.5341 29.1837 26.2742 29.1832 26.0118V6.08783H34.6726V17.0497H40.162V6.08783C41.6179 6.08783 43.0141 6.66527 44.0436 7.69314C45.0731 8.72102 45.6514 10.1151 45.6514 11.5688V32.2294C45.6525 33.8345 45.3367 35.424 44.7222 36.9071C44.1078 38.3903 43.2066 39.738 42.0704 40.8733C40.934 42.0086 39.5848 42.9092 38.0997 43.5236C36.6147 44.138 35.0229 44.4544 33.4154 44.4544H23.6976V38.9734H33.2436C35.0785 38.9734 36.8382 38.2457 38.1357 36.9502C39.4331 35.6548 40.162 33.8978 40.162 32.0658V22.5306Z" fill="white"/>
</svg>
