<svg width="236" height="59" viewBox="0 0 236 59" fill="none" xmlns="http://www.w3.org/2000/svg">
<path d="M74.4775 24.6358V14.8965H64.6754V24.6358H60.0858V1.74671H64.6754V11.1581H74.4775V1.74671H79.0671V24.6358H74.4775Z" fill="#55A654"/>
<path d="M101.123 15.5523C101.123 21.2582 96.9271 24.931 91.6491 24.931C86.4038 24.931 82.4371 21.2582 82.4371 15.5523C82.4371 9.81365 86.5349 6.17369 91.7802 6.17369C97.0255 6.17369 101.123 9.81365 101.123 15.5523ZM87.0922 15.5523C87.0922 19.1595 89.1903 20.9303 91.6491 20.9303C94.075 20.9303 96.4026 19.1595 96.4026 15.5523C96.4026 11.9124 94.1406 10.1744 91.7146 10.1744C89.2887 10.1744 87.0922 11.9124 87.0922 15.5523Z" fill="#55A654"/>
<path d="M121.635 6.46882V24.6358H117.013V22.3404C115.866 23.8816 113.866 24.8654 111.604 24.8654C107.375 24.8654 104.326 22.1108 104.326 17.1264V6.46882H108.916V16.4705C108.916 19.389 110.522 20.9631 112.948 20.9631C115.439 20.9631 117.013 19.389 117.013 16.4705V6.46882H121.635Z" fill="#55A654"/>
<path d="M140.26 19.4546C140.26 22.5699 137.539 24.931 133.114 24.931C128.557 24.931 125.377 22.2748 125.18 18.8972H129.803C129.967 20.2744 131.245 21.3238 133.081 21.3238C134.884 21.3238 135.868 20.504 135.868 19.4546C135.868 16.2082 125.606 18.2741 125.606 11.6172C125.606 8.60033 128.295 6.17369 132.786 6.17369C137.179 6.17369 139.834 8.56754 140.097 12.1747H135.704C135.572 10.7646 134.458 9.81365 132.655 9.81365C130.95 9.81365 130.065 10.5023 130.065 11.5517C130.065 14.8637 140.129 12.7978 140.26 19.4546Z" fill="#55A654"/>
<path d="M151.83 9.94482C149.634 9.94482 147.896 11.3549 147.536 13.8471H156.158C156.092 11.4533 154.191 9.94482 151.83 9.94482ZM160.452 18.93C159.469 22.2748 156.453 24.931 151.961 24.931C146.683 24.931 142.848 21.2582 142.848 15.5523C142.848 9.81365 146.585 6.17369 151.961 6.17369C157.207 6.17369 160.911 9.74807 160.911 15.1588C160.911 15.7491 160.878 16.3393 160.78 16.9296H147.503C147.732 19.6186 149.568 21.127 151.863 21.127C153.83 21.127 154.912 20.1433 155.502 18.93H160.452Z" fill="#55A654"/>
<path d="M178.653 24.6358V14.8965H168.851V24.6358H164.261V1.74671H168.851V11.1581H178.653V1.74671H183.242V24.6358H178.653Z" fill="#55A654"/>
<path d="M195.562 9.94482C193.366 9.94482 191.628 11.3549 191.268 13.8471H199.889C199.824 11.4533 197.922 9.94482 195.562 9.94482ZM204.184 18.93C203.2 22.2748 200.184 24.931 195.693 24.931C190.415 24.931 186.58 21.2582 186.58 15.5523C186.58 9.81365 190.317 6.17369 195.693 6.17369C200.938 6.17369 204.643 9.74807 204.643 15.1588C204.643 15.7491 204.61 16.3393 204.512 16.9296H191.235C191.464 19.6186 193.3 21.127 195.595 21.127C197.562 21.127 198.644 20.1433 199.234 18.93H204.184Z" fill="#55A654"/>
<path d="M207.993 24.6358V0.36943H212.583V24.6358H207.993Z" fill="#55A654"/>
<path d="M221.707 9.09222C222.788 7.55097 224.887 6.17369 227.706 6.17369C232.361 6.17369 236 9.81365 236 15.4867C236 21.1598 232.361 24.931 227.706 24.931C224.854 24.931 222.821 23.5209 221.707 22.0452V33.293H217.117V6.46882H221.707V9.09222ZM231.312 15.4867C231.312 12.0435 228.984 10.2072 226.493 10.2072C224.034 10.2072 221.707 12.1091 221.707 15.5523C221.707 18.9955 224.034 20.8975 226.493 20.8975C228.984 20.8975 231.312 18.93 231.312 15.4867Z" fill="#55A654"/>
<path d="M75.6249 50.3428L74.1169 45.9814H65.0032L63.4952 50.3428H58.6761L66.9046 27.4209H72.2483L80.4768 50.3428H75.6249ZM72.8711 42.3086L69.5601 32.7333L66.249 42.3086H72.8711Z" fill="#55A654"/>
<path d="M88.1421 34.7992C89.2239 33.2579 91.322 31.8807 94.1413 31.8807C98.7965 31.8807 102.435 35.5206 102.435 41.1937C102.435 46.8668 98.7965 50.6379 94.1413 50.6379C91.2892 50.6379 89.2567 49.2279 88.1421 47.7522V59H83.5525V32.1758H88.1421V34.7992ZM97.7474 41.1937C97.7474 37.7505 95.4199 35.9141 92.9284 35.9141C90.4696 35.9141 88.1421 37.8161 88.1421 41.2593C88.1421 44.7025 90.4696 46.6045 92.9284 46.6045C95.4199 46.6045 97.7474 44.6369 97.7474 41.1937Z" fill="#55A654"/>
<path d="M110.36 34.7992C111.442 33.2579 113.54 31.8807 116.359 31.8807C121.015 31.8807 124.653 35.5206 124.653 41.1937C124.653 46.8668 121.015 50.6379 116.359 50.6379C113.507 50.6379 111.475 49.2279 110.36 47.7522V59H105.771V32.1758H110.36V34.7992ZM119.966 41.1937C119.966 37.7505 117.638 35.9141 115.146 35.9141C112.688 35.9141 110.36 37.8161 110.36 41.2593C110.36 44.7025 112.688 46.6045 115.146 46.6045C117.638 46.6045 119.966 44.6369 119.966 41.1937Z" fill="#55A654"/>
<path d="M0 4.28449C0 1.91823 1.91767 0 4.28324 0H47.1157C49.4813 0 51.3989 1.91823 51.3989 4.28449V43.9161C51.3989 46.2823 49.4813 48.2006 47.1157 48.2006H4.28324C1.91767 48.2006 0 46.2823 0 43.9161V4.28449Z" fill="#55A654"/>
<path d="M9.6373 27.0076H15.5268V22.2227C15.5268 20.4074 16.2571 18.6665 17.5572 17.383C18.8573 16.0994 20.6206 15.3783 22.4592 15.3783H27.3057V21.1929H23.5609C22.9917 21.194 22.4462 21.418 22.0441 21.8158C21.642 22.2135 21.4162 22.7525 21.4162 23.3145V44.4516H15.5268V32.8223H9.6373V44.4516C8.07532 44.4516 6.57731 43.839 5.47282 42.7485C4.36834 41.6581 3.74784 40.1791 3.74784 38.637V16.7182C3.74674 15.0155 4.08549 13.3292 4.74472 11.7557C5.40396 10.1823 6.37077 8.75246 7.5899 7.54805C8.80903 6.34363 10.2566 5.38819 11.8499 4.73632C13.4431 4.08445 15.1509 3.74893 16.8756 3.74893H27.3057V9.5636H17.0599C15.0913 9.5636 13.2033 10.3357 11.8113 11.71C10.4193 13.0843 9.6373 14.9483 9.6373 16.8919V27.0076Z" fill="white"/>
<path d="M41.7606 21.1929H35.8701V25.9778C35.8701 27.7924 35.1401 29.5327 33.8407 30.8161C32.5413 32.0996 30.7788 32.8212 28.9406 32.8223H24.0932V27.0076H27.8345C28.1166 27.0076 28.3958 26.9527 28.6564 26.846C28.9169 26.7394 29.1535 26.583 29.3528 26.386C29.552 26.1889 29.7099 25.955 29.8175 25.6976C29.925 25.4402 29.9801 25.1645 29.9796 24.886V3.74893H35.8701V15.3783H41.7606V3.74893C43.3228 3.74893 44.8211 4.36155 45.9258 5.45201C47.0305 6.54247 47.6511 8.02146 47.6511 9.5636V31.4823C47.6522 33.1851 47.3134 34.8714 46.654 36.4448C45.9947 38.0183 45.0277 39.4481 43.8083 40.6525C42.589 41.8569 41.1412 42.8124 39.5476 43.4642C37.9541 44.1161 36.246 44.4516 34.521 44.4516H24.0932V38.637H34.3367C36.3056 38.637 38.1939 37.8649 39.5862 36.4905C40.9784 35.1162 41.7606 33.2522 41.7606 31.3086V21.1929Z" fill="white"/>
</svg>
